<svg xmlns="http://www.w3.org/2000/svg" xmlns:xlink="http://www.w3.org/1999/xlink" contentStyleType="text/css" data-diagram-type="DESCRIPTION" height="1128.125px" preserveAspectRatio="none" style="width:1325px;height:1128px;background:#242424;" version="1.1" viewBox="0 0 1325 1128" width="1325px" zoomAndPan="magnify"><title>Bookshelf Frontend - Component diagram</title><defs><linearGradient id="g4ftl8pihh7470" x1="50%" x2="50%" y1="0%" y2="100%"><stop offset="0%" stop-color="#B8B8B8"/><stop offset="100%" stop-color="#6B6B6B"/></linearGradient><linearGradient id="g4ftl8pihh7471" x1="50%" x2="50%" y1="0%" y2="100%"><stop offset="0%" stop-color="#7C9AB9"/><stop offset="100%" stop-color="#304D6D"/></linearGradient></defs><g><rect fill="#242424" height="1128.125" style="stroke:none;stroke-width:1.0417;" width="1325" x="0" y="0"/><g class="title" data-source-line="4"><rect fill="none" height="48.2361" rx="4.1667" ry="4.1667" style="stroke:#6B6B6B;stroke-width:1.0417;" width="512.3779" x="402.1179" y="20.8333"/><text fill="#304D6D" font-family="Verdana" font-size="20.8333" font-weight="bold" lengthAdjust="spacing" textLength="489.4613" x="413.5763" y="53.2369">Bookshelf Frontend - Component diagram</text></g><!--cluster Frontend Application--><g class="cluster" data-entity="Frontend Application" data-source-line="6" data-uid="ent0002" id="cluster_Frontend Application"><path d="M20.8333,86.7778 L175.7975,86.7778 A6.25,6.25 0 0 1 179.9642,90.9444 L187.2559,118.6361 L957.2917,118.6361 A4.1667,4.1667 0 0 1 961.4583,122.8027 L961.4583,906.5694 A4.1667,4.1667 0 0 1 957.2917,910.7361 L20.8333,910.7361 A4.1667,4.1667 0 0 1 16.6667,906.5694 L16.6667,90.9444 A4.1667,4.1667 0 0 1 20.8333,86.7778" fill="url(#g4ftl8pihh7470)" style="stroke:#446E9B;stroke-width:2.0833;"/><line style="stroke:#446E9B;stroke-width:2.0833;" x1="16.6667" x2="187.2559" y1="118.6361" y2="118.6361"/><text fill="#446E9B" font-family="Verdana" font-size="12.5" font-weight="bold" lengthAdjust="spacing" textLength="146.6309" x="26.0417" y="106.6366">Frontend Application</text></g><!--cluster Components--><g class="cluster" data-entity="Components" data-source-line="10" data-uid="ent0005" id="cluster_Components"><path d="M45.8333,460.7361 L141.5629,460.7361 A6.25,6.25 0 0 1 145.7296,464.9028 L153.0212,492.5944 L747.9167,492.5944 A4.1667,4.1667 0 0 1 752.0833,496.7611 L752.0833,881.5694 A4.1667,4.1667 0 0 1 747.9167,885.7361 L45.8333,885.7361 A4.1667,4.1667 0 0 1 41.6667,881.5694 L41.6667,464.9028 A4.1667,4.1667 0 0 1 45.8333,460.7361" fill="url(#g4ftl8pihh7470)" style="stroke:#446E9B;stroke-width:2.0833;"/><line style="stroke:#446E9B;stroke-width:2.0833;" x1="41.6667" x2="153.0212" y1="492.5944" y2="492.5944"/><text fill="#446E9B" font-family="Verdana" font-size="12.5" font-weight="bold" lengthAdjust="spacing" textLength="87.3962" x="51.0417" y="480.5949">Components</text></g><!--cluster API--><g class="cluster" data-entity="API" data-source-line="23" data-uid="ent0014" id="cluster_API"><path d="M647.9167,981.5694 C647.9167,971.1528 804.1667,971.1528 804.1667,971.1528 C804.1667,971.1528 960.4167,971.1528 960.4167,981.5694 L960.4167,1095.1111 C960.4167,1105.5278 804.1667,1105.5278 804.1667,1105.5278 C804.1667,1105.5278 647.9167,1105.5278 647.9167,1095.1111 L647.9167,981.5694" fill="url(#g4ftl8pihh7470)" style="stroke:#446E9B;stroke-width:1.0417;"/><path d="M647.9167,981.5694 C647.9167,991.9861 804.1667,991.9861 804.1667,991.9861 C804.1667,991.9861 960.4167,991.9861 960.4167,981.5694" fill="none" style="stroke:#446E9B;stroke-width:1.0417;"/><text fill="#FFFFFF" font-family="Verdana" font-size="12.5" font-weight="bold" lengthAdjust="spacing" textLength="89.5203" x="759.4065" y="1011.8449">Backend API</text></g><!--entity Index--><g class="entity" data-entity="Index" data-source-line="7" data-uid="ent0003" id="entity_Index"><rect fill="url(#g4ftl8pihh7471)" height="82.4666" rx="4.1667" ry="4.1667" style="stroke:#304D6D;stroke-width:1.0417;" width="139.5243" x="404.1667" y="131.5694"/><rect fill="url(#g4ftl8pihh7471)" height="10.4167" style="stroke:#304D6D;stroke-width:1.0417;" width="15.625" x="522.8577" y="136.7778"/><rect fill="url(#g4ftl8pihh7471)" height="2.0833" style="stroke:#304D6D;stroke-width:1.0417;" width="4.1667" x="520.7743" y="138.8611"/><rect fill="url(#g4ftl8pihh7471)" height="2.0833" style="stroke:#304D6D;stroke-width:1.0417;" width="4.1667" x="520.7743" y="143.0278"/><text fill="#FFFFFF" font-family="Verdana" font-size="12.5" font-style="italic" lengthAdjust="spacing" textLength="85.3577" x="426.0417" y="170.1782">&#171;Entry Point&#187;</text><text fill="#FFFFFF" font-family="Verdana" font-size="12.5" lengthAdjust="spacing" textLength="57.3547" x="440.0431" y="195.7865">index.tsx</text></g><!--entity App--><g class="entity" data-entity="App" data-source-line="8" data-uid="ent0004" id="entity_App"><rect fill="url(#g4ftl8pihh7471)" height="82.4666" rx="4.1667" ry="4.1667" style="stroke:#304D6D;stroke-width:1.0417;" width="164.8356" x="391.6667" y="303.4444"/><rect fill="url(#g4ftl8pihh7471)" height="10.4167" style="stroke:#304D6D;stroke-width:1.0417;" width="15.625" x="535.6689" y="308.6528"/><rect fill="url(#g4ftl8pihh7471)" height="2.0833" style="stroke:#304D6D;stroke-width:1.0417;" width="4.1667" x="533.5856" y="310.7361"/><rect fill="url(#g4ftl8pihh7471)" height="2.0833" style="stroke:#304D6D;stroke-width:1.0417;" width="4.1667" x="533.5856" y="314.9028"/><text fill="#FFFFFF" font-family="Verdana" font-size="12.5" font-style="italic" lengthAdjust="spacing" textLength="110.6689" x="413.5417" y="342.0532">&#171;Main Container&#187;</text><text fill="#FFFFFF" font-family="Verdana" font-size="12.5" lengthAdjust="spacing" textLength="47.5037" x="445.1243" y="367.6615">App.tsx</text></g><!--entity DataHandler--><g class="entity" data-entity="DataHandler" data-source-line="20" data-uid="ent0013" id="entity_DataHandler"><rect fill="url(#g4ftl8pihh7471)" height="82.4666" rx="4.1667" ry="4.1667" style="stroke:#304D6D;stroke-width:1.0417;" width="162.026" x="768.75" y="799.2778"/><rect fill="url(#g4ftl8pihh7471)" height="10.4167" style="stroke:#304D6D;stroke-width:1.0417;" width="15.625" x="909.9426" y="804.4861"/><rect fill="url(#g4ftl8pihh7471)" height="2.0833" style="stroke:#304D6D;stroke-width:1.0417;" width="4.1667" x="907.8593" y="806.5694"/><rect fill="url(#g4ftl8pihh7471)" height="2.0833" style="stroke:#304D6D;stroke-width:1.0417;" width="4.1667" x="907.8593" y="810.7361"/><text fill="#FFFFFF" font-family="Verdana" font-size="12.5" font-style="italic" lengthAdjust="spacing" textLength="82.9407" x="803.0843" y="837.8866">&#171;Config/API&#187;</text><text fill="#FFFFFF" font-family="Verdana" font-size="12.5" lengthAdjust="spacing" textLength="109.9426" x="789.5833" y="863.4949">dbDataHandler.ts</text></g><!--entity Nav--><g class="entity" data-entity="Nav" data-source-line="11" data-uid="ent0006" id="entity_Nav"><rect fill="url(#g4ftl8pihh7471)" height="56.8583" rx="4.1667" ry="4.1667" style="stroke:#304D6D;stroke-width:1.0417;" width="99.7213" x="534.375" y="505.5278"/><rect fill="url(#g4ftl8pihh7471)" height="10.4167" style="stroke:#304D6D;stroke-width:1.0417;" width="15.625" x="613.2629" y="510.7361"/><rect fill="url(#g4ftl8pihh7471)" height="2.0833" style="stroke:#304D6D;stroke-width:1.0417;" width="4.1667" x="611.1796" y="512.8194"/><rect fill="url(#g4ftl8pihh7471)" height="2.0833" style="stroke:#304D6D;stroke-width:1.0417;" width="4.1667" x="611.1796" y="516.9861"/><text fill="#FFFFFF" font-family="Verdana" font-size="12.5" lengthAdjust="spacing" textLength="47.6379" x="555.2083" y="544.1366">Nav.tsx</text></g><!--entity Sidebar--><g class="entity" data-entity="Sidebar" data-source-line="12" data-uid="ent0007" id="entity_Sidebar"><rect fill="url(#g4ftl8pihh7471)" height="56.8583" rx="4.1667" ry="4.1667" style="stroke:#304D6D;stroke-width:1.0417;" width="123.3053" x="58.3333" y="652.4028"/><rect fill="url(#g4ftl8pihh7471)" height="10.4167" style="stroke:#304D6D;stroke-width:1.0417;" width="15.625" x="160.8053" y="657.6111"/><rect fill="url(#g4ftl8pihh7471)" height="2.0833" style="stroke:#304D6D;stroke-width:1.0417;" width="4.1667" x="158.7219" y="659.6944"/><rect fill="url(#g4ftl8pihh7471)" height="2.0833" style="stroke:#304D6D;stroke-width:1.0417;" width="4.1667" x="158.7219" y="663.8611"/><text fill="#FFFFFF" font-family="Verdana" font-size="12.5" lengthAdjust="spacing" textLength="71.2219" x="79.1667" y="691.0116">Sidebar.tsx</text></g><!--entity Shelf--><g class="entity" data-entity="Shelf" data-source-line="13" data-uid="ent0008" id="entity_Shelf"><rect fill="url(#g4ftl8pihh7471)" height="56.8583" rx="4.1667" ry="4.1667" style="stroke:#304D6D;stroke-width:1.0417;" width="107.192" x="310.9375" y="505.5278"/><rect fill="url(#g4ftl8pihh7471)" height="10.4167" style="stroke:#304D6D;stroke-width:1.0417;" width="15.625" x="397.2961" y="510.7361"/><rect fill="url(#g4ftl8pihh7471)" height="2.0833" style="stroke:#304D6D;stroke-width:1.0417;" width="4.1667" x="395.2128" y="512.8194"/><rect fill="url(#g4ftl8pihh7471)" height="2.0833" style="stroke:#304D6D;stroke-width:1.0417;" width="4.1667" x="395.2128" y="516.9861"/><text fill="#FFFFFF" font-family="Verdana" font-size="12.5" lengthAdjust="spacing" textLength="55.1086" x="331.7708" y="544.1366">Shelf.tsx</text></g><!--entity Book--><g class="entity" data-entity="Book" data-source-line="14" data-uid="ent0009" id="entity_Book"><rect fill="url(#g4ftl8pihh7471)" height="56.8583" rx="4.1667" ry="4.1667" style="stroke:#304D6D;stroke-width:1.0417;" width="106.606" x="217.7083" y="652.4028"/><rect fill="url(#g4ftl8pihh7471)" height="10.4167" style="stroke:#304D6D;stroke-width:1.0417;" width="15.625" x="303.481" y="657.6111"/><rect fill="url(#g4ftl8pihh7471)" height="2.0833" style="stroke:#304D6D;stroke-width:1.0417;" width="4.1667" x="301.3977" y="659.6944"/><rect fill="url(#g4ftl8pihh7471)" height="2.0833" style="stroke:#304D6D;stroke-width:1.0417;" width="4.1667" x="301.3977" y="663.8611"/><text fill="#FFFFFF" font-family="Verdana" font-size="12.5" lengthAdjust="spacing" textLength="54.5227" x="238.5417" y="691.0116">Book.tsx</text></g><!--entity KebabMenu--><g class="entity" data-entity="KebabMenu" data-source-line="15" data-uid="ent0010" id="entity_KebabMenu"><rect fill="url(#g4ftl8pihh7471)" height="56.8583" rx="4.1667" ry="4.1667" style="stroke:#304D6D;stroke-width:1.0417;" width="148.4578" x="109.8958" y="811.7778"/><rect fill="url(#g4ftl8pihh7471)" height="10.4167" style="stroke:#304D6D;stroke-width:1.0417;" width="15.625" x="237.5203" y="816.9861"/><rect fill="url(#g4ftl8pihh7471)" height="2.0833" style="stroke:#304D6D;stroke-width:1.0417;" width="4.1667" x="235.437" y="819.0694"/><rect fill="url(#g4ftl8pihh7471)" height="2.0833" style="stroke:#304D6D;stroke-width:1.0417;" width="4.1667" x="235.437" y="823.2361"/><text fill="#FFFFFF" font-family="Verdana" font-size="12.5" lengthAdjust="spacing" textLength="96.3745" x="130.7292" y="850.3866">KebabMenu.tsx</text></g><!--entity CustomButton--><g class="entity" data-entity="CustomButton" data-source-line="16" data-uid="ent0011" id="entity_CustomButton"><rect fill="url(#g4ftl8pihh7471)" height="56.8583" rx="4.1667" ry="4.1667" style="stroke:#304D6D;stroke-width:1.0417;" width="165.1143" x="569.2708" y="652.4028"/><rect fill="url(#g4ftl8pihh7471)" height="10.4167" style="stroke:#304D6D;stroke-width:1.0417;" width="15.625" x="713.5518" y="657.6111"/><rect fill="url(#g4ftl8pihh7471)" height="2.0833" style="stroke:#304D6D;stroke-width:1.0417;" width="4.1667" x="711.4685" y="659.6944"/><rect fill="url(#g4ftl8pihh7471)" height="2.0833" style="stroke:#304D6D;stroke-width:1.0417;" width="4.1667" x="711.4685" y="663.8611"/><text fill="#FFFFFF" font-family="Verdana" font-size="12.5" lengthAdjust="spacing" textLength="113.031" x="590.1042" y="691.0116">CustomButton.tsx</text></g><!--entity CombinedInput--><g class="entity" data-entity="CombinedInput" data-source-line="17" data-uid="ent0012" id="entity_CombinedInput"><rect fill="url(#g4ftl8pihh7471)" height="56.8583" rx="4.1667" ry="4.1667" style="stroke:#304D6D;stroke-width:1.0417;" width="172.0968" x="360.9375" y="652.4028"/><rect fill="url(#g4ftl8pihh7471)" height="10.4167" style="stroke:#304D6D;stroke-width:1.0417;" width="15.625" x="512.2009" y="657.6111"/><rect fill="url(#g4ftl8pihh7471)" height="2.0833" style="stroke:#304D6D;stroke-width:1.0417;" width="4.1667" x="510.1176" y="659.6944"/><rect fill="url(#g4ftl8pihh7471)" height="2.0833" style="stroke:#304D6D;stroke-width:1.0417;" width="4.1667" x="510.1176" y="663.8611"/><text fill="#FFFFFF" font-family="Verdana" font-size="12.5" lengthAdjust="spacing" textLength="120.0134" x="381.7708" y="691.0116">CombinedInput.tsx</text></g><!--entity Books API--><g class="entity" data-entity="Books API" data-source-line="24" data-uid="ent0015" id="entity_Books API"><rect fill="url(#g4ftl8pihh7471)" height="56.8583" rx="4.1667" ry="4.1667" style="stroke:#304D6D;stroke-width:1.0417;" width="115.4744" x="665.1042" y="1031.5694"/><rect fill="url(#g4ftl8pihh7471)" height="10.4167" style="stroke:#304D6D;stroke-width:1.0417;" width="15.625" x="759.7453" y="1036.7778"/><rect fill="url(#g4ftl8pihh7471)" height="2.0833" style="stroke:#304D6D;stroke-width:1.0417;" width="4.1667" x="757.6619" y="1038.8611"/><rect fill="url(#g4ftl8pihh7471)" height="2.0833" style="stroke:#304D6D;stroke-width:1.0417;" width="4.1667" x="757.6619" y="1043.0278"/><text fill="#FFFFFF" font-family="Verdana" font-size="12.5" lengthAdjust="spacing" textLength="63.3911" x="685.9375" y="1070.1782">Books API</text></g><!--entity Shelves API--><g class="entity" data-entity="Shelves API" data-source-line="25" data-uid="ent0016" id="entity_Shelves API"><rect fill="url(#g4ftl8pihh7471)" height="56.8583" rx="4.1667" ry="4.1667" style="stroke:#304D6D;stroke-width:1.0417;" width="126.5096" x="817.1875" y="1031.5694"/><rect fill="url(#g4ftl8pihh7471)" height="10.4167" style="stroke:#304D6D;stroke-width:1.0417;" width="15.625" x="922.8638" y="1036.7778"/><rect fill="url(#g4ftl8pihh7471)" height="2.0833" style="stroke:#304D6D;stroke-width:1.0417;" width="4.1667" x="920.7804" y="1038.8611"/><rect fill="url(#g4ftl8pihh7471)" height="2.0833" style="stroke:#304D6D;stroke-width:1.0417;" width="4.1667" x="920.7804" y="1043.0278"/><text fill="#FFFFFF" font-family="Verdana" font-size="12.5" lengthAdjust="spacing" textLength="74.4263" x="838.0208" y="1070.1782">Shelves API</text></g><!--link Index to App--><g class="link" data-entity-1="Index" data-entity-2="App" data-source-line="29" data-uid="lnk17" id="link_Index_App"><path d="M473.9583,213.9965 C473.9583,240.9653 473.9583,270.0903 473.9583,297.059" fill="none" id="Index-to-App" style="stroke:#446E9B;stroke-width:3.125;"/><polygon fill="#446E9B" points="473.9583,303.309,478.125,293.934,473.9583,298.1007,469.7917,293.934,473.9583,303.309" style="stroke:#446E9B;stroke-width:3.125;"/><text fill="#FFFFFF" font-family="Verdana" font-size="12.5" lengthAdjust="spacing" textLength="47.7722" x="480.2083" y="263.9282">renders</text></g><!--link App to Nav--><g class="link" data-entity-1="App" data-entity-2="Nav" data-source-line="30" data-uid="lnk18" id="link_App_Nav"><path d="M497.6458,385.8507 C518.875,421.9028 546.2766,468.4442 564.8807,500.038" fill="none" id="App-to-Nav" style="stroke:#446E9B;stroke-width:3.125;"/><polygon fill="#446E9B" points="568.0521,505.4236,566.8855,495.2309,565.4093,500.9356,559.7046,499.4594,568.0521,505.4236" style="stroke:#446E9B;stroke-width:3.125;"/><text fill="#FFFFFF" font-family="Verdana" font-size="12.5" lengthAdjust="spacing" textLength="50.9399" x="535.4167" y="435.8032">includes</text></g><!--link App to Sidebar--><g class="link" data-entity-1="App" data-entity-2="Sidebar" data-source-line="31" data-uid="lnk19" id="link_App_Sidebar"><path d="M391.625,365.8403 C340,382.0382 274.9896,409.3298 230.2083,452.4028 C170.8646,509.4861 140.8459,599.0141 128.1584,646.0662" fill="none" id="App-to-Sidebar" style="stroke:#446E9B;stroke-width:3.125;"/><polygon fill="#446E9B" points="126.5313,652.1007,132.995,644.1338,127.8872,647.0719,124.949,641.9642,126.5313,652.1007" style="stroke:#446E9B;stroke-width:3.125;"/><text fill="#FFFFFF" font-family="Verdana" font-size="12.5" lengthAdjust="spacing" textLength="50.9399" x="236.4583" y="539.4491">includes</text></g><!--link App to Shelf--><g class="link" data-entity-1="App" data-entity-2="Shelf" data-source-line="32" data-uid="lnk20" id="link_App_Shelf"><path d="M439.4896,385.9236 C431.8438,395.7569 424.125,406.4861 417.7083,416.9861 C400.1458,445.7465 387.0269,475.4946 377.3811,499.6404" fill="none" id="App-to-Shelf" style="stroke:#446E9B;stroke-width:3.125;"/><polygon fill="#446E9B" points="375.0625,505.4444,382.4097,498.2841,376.9947,500.6077,374.6711,495.1927,375.0625,505.4444" style="stroke:#446E9B;stroke-width:3.125;"/><text fill="#FFFFFF" font-family="Verdana" font-size="12.5" lengthAdjust="spacing" textLength="50.9399" x="423.9583" y="435.8032">includes</text></g><!--link Sidebar to KebabMenu--><g class="link" data-entity-1="Sidebar" data-entity-2="KebabMenu" data-source-line="34" data-uid="lnk21" id="link_Sidebar_KebabMenu"><path d="M129.1771,709.809 C135.0833,726.7673 143.0833,748.8194 151.0417,768.0278 C157.0625,782.5486 161.6981,792.7858 167.9585,805.8691" fill="none" id="Sidebar-to-KebabMenu" style="stroke:#446E9B;stroke-width:3.125;"/><polygon fill="#446E9B" points="170.6563,811.5069,170.3682,801.2517,168.4082,806.8087,162.8511,804.8487,170.6563,811.5069" style="stroke:#446E9B;stroke-width:3.125;"/><text fill="#FFFFFF" font-family="Verdana" font-size="12.5" lengthAdjust="spacing" textLength="28.3813" x="157.2917" y="759.7616">uses</text></g><!--link Nav to CustomButton--><g class="link" data-entity-1="Nav" data-entity-2="CustomButton" data-source-line="35" data-uid="lnk22" id="link_Nav_CustomButton"><path d="M589.375,562.8611 C593.1563,580.184 599.2708,602.6528 608.3333,621.1528 C613.6563,632.0173 617.2565,637.9581 624.4545,647.3747" fill="none" id="Nav-to-CustomButton" style="stroke:#446E9B;stroke-width:3.125;"/><polygon fill="#446E9B" points="628.25,652.3403,625.867,642.3616,625.087,648.2023,619.2463,647.4223,628.25,652.3403" style="stroke:#446E9B;stroke-width:3.125;"/><text fill="#FFFFFF" font-family="Verdana" font-size="12.5" lengthAdjust="spacing" textLength="28.3813" x="614.5833" y="612.8866">uses</text></g><!--link Nav to CombinedInput--><g class="link" data-entity-1="Nav" data-entity-2="CombinedInput" data-source-line="36" data-uid="lnk23" id="link_Nav_CombinedInput"><path d="M557.8646,563.1319 C533.5104,588.7673 501.9287,622.0268 477.6058,647.6414" fill="none" id="Nav-to-CombinedInput" style="stroke:#446E9B;stroke-width:3.125;"/><polygon fill="#446E9B" points="473.3021,652.1736,482.7791,648.2444,476.8885,648.3967,476.7361,642.5062,473.3021,652.1736" style="stroke:#446E9B;stroke-width:3.125;"/><text fill="#FFFFFF" font-family="Verdana" font-size="12.5" lengthAdjust="spacing" textLength="28.3813" x="533.3333" y="612.8866">uses</text></g><!--link Shelf to Book--><g class="link" data-entity-1="Shelf" data-entity-2="Book" data-source-line="37" data-uid="lnk24" id="link_Shelf_Book"><path d="M346.5104,563.1319 C329.9063,588.7673 308.8341,621.3125 292.2508,646.9271" fill="none" id="Shelf-to-Book" style="stroke:#446E9B;stroke-width:3.125;"/><polygon fill="#446E9B" points="288.8542,652.1736,297.4468,646.5683,291.6847,647.8015,290.4515,642.0395,288.8542,652.1736" style="stroke:#446E9B;stroke-width:3.125;"/><text fill="#FFFFFF" font-family="Verdana" font-size="12.5" lengthAdjust="spacing" textLength="87.1399" x="332.2917" y="612.8866">renders many</text></g><!--link Book to KebabMenu--><g class="link" data-entity-1="Book" data-entity-2="KebabMenu" data-source-line="38" data-uid="lnk25" id="link_Book_KebabMenu"><path d="M232.5417,709.9444 C222.6667,718.8298 212.9479,729.3923 206.25,740.9444 C199.4063,752.7569 193.8117,780.5612 189.6763,805.3008" fill="none" id="Book-to-KebabMenu" style="stroke:#446E9B;stroke-width:3.125;"/><polygon fill="#446E9B" points="188.6458,811.4653,194.3011,802.9055,189.5045,806.3282,186.0818,801.5316,188.6458,811.4653" style="stroke:#446E9B;stroke-width:3.125;"/><text fill="#FFFFFF" font-family="Verdana" font-size="12.5" lengthAdjust="spacing" textLength="28.3813" x="212.5" y="759.7616">uses</text></g><!--link App to DataHandler--><g class="link" data-entity-1="App" data-entity-2="DataHandler" data-source-line="41" data-uid="lnk26" id="link_App_DataHandler"><path d="M556.5417,363.9757 C615.4167,380.0694 694.0833,407.9757 752.0833,452.4028 C839.4167,519.2986 863.8333,547.809 897.9167,652.4028 C914.1667,702.2673 895.4433,755.4544 876.2558,793.6107" fill="none" id="App-to-DataHandler" style="stroke:#446E9B;stroke-width:3.125;stroke-dasharray:7.2917,7.2917;"/><polygon fill="#446E9B" points="873.4479,799.1944,881.3822,792.6907,875.7878,794.5413,873.9372,788.9469,873.4479,799.1944" style="stroke:#446E9B;stroke-width:3.125;"/><text fill="#FFFFFF" font-family="Verdana" font-size="12.5" lengthAdjust="spacing" textLength="122.467" x="892.7083" y="612.8866">uses URLs/Methods</text></g><!--link Book to DataHandler--><g class="link" data-entity-1="Book" data-entity-2="DataHandler" data-source-line="42" data-uid="lnk27" id="link_Book_DataHandler"><path d="M324.0833,702.934 C330.3438,705.2673 336.6563,707.5694 342.7083,709.6944 C352.7396,713.2257 514.6354,765.6736 525,768.0278 C624.3542,790.5798 653.6979,772.8194 752.0833,799.2778 C757.4896,800.7361 757.0652,800.4535 762.586,802.2765" fill="none" id="Book-to-DataHandler" style="stroke:#446E9B;stroke-width:3.125;stroke-dasharray:7.2917,7.2917;"/><polygon fill="#446E9B" points="768.5208,804.2361,760.925,797.3401,763.5751,802.6031,758.3122,805.2532,768.5208,804.2361" style="stroke:#446E9B;stroke-width:3.125;"/><text fill="#FFFFFF" font-family="Verdana" font-size="12.5" lengthAdjust="spacing" textLength="85.4797" x="531.25" y="759.7616">uses Methods</text></g><!--link Sidebar to DataHandler--><g class="link" data-entity-1="Sidebar" data-entity-2="DataHandler" data-source-line="43" data-uid="lnk28" id="link_Sidebar_DataHandler"><path d="M181.4167,709.4861 C232.9896,731.9548 302.7396,761.1319 332.2917,768.0278 C514.4896,810.5486 569.9896,756.3507 752.0833,799.2778 C757.5417,800.559 757.118,800.2462 762.6493,801.9754" fill="none" id="Sidebar-to-DataHandler" style="stroke:#446E9B;stroke-width:3.125;stroke-dasharray:7.2917,7.2917;"/><polygon fill="#446E9B" points="768.6146,803.8403,760.9099,797.0661,763.6435,802.2862,758.4234,805.0198,768.6146,803.8403" style="stroke:#446E9B;stroke-width:3.125;"/><text fill="#FFFFFF" font-family="Verdana" font-size="12.5" lengthAdjust="spacing" textLength="85.4797" x="338.5417" y="759.7616">uses Methods</text></g><!--link Nav to DataHandler--><g class="link" data-entity-1="Nav" data-entity-2="DataHandler" data-source-line="44" data-uid="lnk29" id="link_Nav_DataHandler"><path d="M634.6875,561.3819 C671.0938,582.2361 719.5729,614.2257 753.125,652.4028 C791.8542,696.4861 817.8404,752.9625 833.5175,793.3063" fill="none" id="Nav-to-DataHandler" style="stroke:#446E9B;stroke-width:3.125;stroke-dasharray:7.2917,7.2917;"/><polygon fill="#446E9B" points="835.7813,799.1319,836.2694,788.8843,833.8948,794.2772,828.5019,791.9027,835.7813,799.1319" style="stroke:#446E9B;stroke-width:3.125;"/><text fill="#FFFFFF" font-family="Verdana" font-size="12.5" lengthAdjust="spacing" textLength="85.4797" x="797.9167" y="686.3241">uses Methods</text></g><!--link CombinedInput to DataHandler--><g class="link" data-entity-1="CombinedInput" data-entity-2="DataHandler" data-source-line="45" data-uid="lnk30" id="link_CombinedInput_DataHandler"><path d="M532.9479,707.3403 C564.1771,717.0798 599.5625,728.7986 631.25,740.9444 C677.3333,758.6007 721.9593,778.3682 762.6885,797.337" fill="none" id="CombinedInput-to-DataHandler" style="stroke:#446E9B;stroke-width:3.125;stroke-dasharray:7.2917,7.2917;"/><polygon fill="#446E9B" points="768.3542,799.9757,761.6148,792.2405,763.6328,797.7768,758.0965,799.7948,768.3542,799.9757" style="stroke:#446E9B;stroke-width:3.125;"/><text fill="#FFFFFF" font-family="Verdana" font-size="12.5" lengthAdjust="spacing" textLength="85.4797" x="697.9167" y="759.7616">uses Methods</text></g><!--link DataHandler to Books API--><g class="link" data-entity-1="DataHandler" data-entity-2="Books API" data-source-line="46" data-uid="lnk31" id="link_DataHandler_Books API"><path d="M810.6979,881.7986 C794.0729,896.2361 773.5938,910.9444 752.0833,919.0694 C735.6042,925.2986 605.875,914.6215 593.75,927.4028 C559.0208,964.0069 610.4195,1002.4706 659.3466,1028.9393" fill="none" id="DataHandler-to-Books API" style="stroke:#446E9B;stroke-width:3.125;stroke-dasharray:7.2917,7.2917;"/><polygon fill="#446E9B" points="664.8438,1031.9132,658.5806,1023.7876,660.2628,1029.4349,654.6155,1031.1171,664.8438,1031.9132" style="stroke:#446E9B;stroke-width:3.125;"/><text fill="#FFFFFF" font-family="Verdana" font-size="12.5" lengthAdjust="spacing" textLength="72.4548" x="600" y="946.2199">fetch books</text></g><!--link DataHandler to Books API--><g class="link" data-entity-1="DataHandler" data-entity-2="Books API" data-source-line="50" data-uid="lnk34" id="link_DataHandler_Books API"><path d="M791.9271,881.7882 C776.9583,894.7673 762.2188,910.2673 752.0833,927.4028 C733,959.6736 726.8823,996.8505 724.6011,1024.8609" fill="none" id="DataHandler-to-Books API-1" style="stroke:#446E9B;stroke-width:3.125;stroke-dasharray:7.2917,7.2917;"/><polygon fill="#446E9B" points="724.0938,1031.0903,729.0077,1022.0844,724.5165,1025.8991,720.7018,1021.408,724.0938,1031.0903" style="stroke:#446E9B;stroke-width:3.125;"/><text fill="#FFFFFF" font-family="Verdana" font-size="12.5" lengthAdjust="spacing" textLength="73.2361" x="758.3333" y="946.2199">delete book</text></g><!--link DataHandler to Shelves API--><g class="link" data-entity-1="DataHandler" data-entity-2="Shelves API" data-source-line="47" data-uid="lnk32" id="link_DataHandler_Shelves API"><path d="M931.2604,849.4757 C1025.8854,860.6736 1173.5833,884.6215 1207.2917,927.4028 C1280.3229,1020.0903 1064.1928,1047.462 949.849,1055.5454" fill="none" id="DataHandler-to-Shelves API" style="stroke:#446E9B;stroke-width:3.125;stroke-dasharray:7.2917,7.2917;"/><polygon fill="#446E9B" points="943.6146,1055.9861,953.2601,1059.4813,948.81,1055.6188,952.6724,1051.1687,943.6146,1055.9861" style="stroke:#446E9B;stroke-width:3.125;"/><text fill="#FFFFFF" font-family="Verdana" font-size="12.5" lengthAdjust="spacing" textLength="82.2388" x="1225" y="946.2199">fetch shelves</text></g><!--link DataHandler to Shelves API--><g class="link" data-entity-1="DataHandler" data-entity-2="Shelves API" data-source-line="49" data-uid="lnk33" id="link_DataHandler_Shelves API"><path d="M848.2396,881.684 C847.6875,896.1007 847.1458,912.4757 846.875,927.4028 C846.6563,939.434 845.0313,942.5903 846.875,954.4861 C851.0313,981.2465 858.6109,1004.6862 866.5172,1025.4675" fill="none" id="DataHandler-to-Shelves API-1" style="stroke:#446E9B;stroke-width:3.125;stroke-dasharray:7.2917,7.2917;"/><polygon fill="#446E9B" points="868.7396,1031.309,869.3003,1021.0651,866.8876,1026.4411,861.5116,1024.0283,868.7396,1031.309" style="stroke:#446E9B;stroke-width:3.125;"/><text fill="#FFFFFF" font-family="Verdana" font-size="12.5" lengthAdjust="spacing" textLength="136.8103" x="853.125" y="946.2199">create/delete/rename</text></g><!--link DataHandler to Shelves API--><g class="link" data-entity-1="DataHandler" data-entity-2="Shelves API" data-source-line="51" data-uid="lnk35" id="link_DataHandler_Shelves API"><path d="M931.2708,868.7882 C957.9792,882.0798 984.7292,901.0486 1000,927.4028 C1023.4896,967.9236 982.5871,1003.4313 940.8996,1028.2855" fill="none" id="DataHandler-to-Shelves API-2" style="stroke:#446E9B;stroke-width:3.125;stroke-dasharray:7.2917,7.2917;"/><polygon fill="#446E9B" points="935.5313,1031.4861,945.7174,1030.2641,940.0048,1028.8189,941.45,1023.1063,935.5313,1031.4861" style="stroke:#446E9B;stroke-width:3.125;"/><text fill="#FFFFFF" font-family="Verdana" font-size="12.5" lengthAdjust="spacing" textLength="153.949" x="1012.5" y="946.2199">update shelf assignment</text></g><!--SRC=[xHfBK-Cu-fpy2WqSTkOGEWa9h-hgMi9Ze0TwAA3xiZK7sLQ2DuwKaMLejel_ljydMxPaAp7J4mwxrSuXiRwdlhVi4FAJUc0BHj8b3Lb2WouXwJpcIohfWf20XlEP51cFJaGY9DaUZl3J1ImLguIHYH3pz84bKt8k1LUCHwH7JiHYAJZZYaGndG4Zn0V-SpfZPAj4F5ukapYaAXPyYtm354B2al9VCO_OrnsLVls3q9HSuXrv__wCA_bCRaJCrOSFTH9WM1B0Rq2_fZ47TRY2RoQ1GfEKgfIAfaQ16iTFzB7a2BzzA7Tnn08gIxJYtekAXgeGySw7XZOjiV36X_GR20ck6SzAp7B5XtwIfKei9fbIWfSKzgANI2m2i5jqoPUPggZiLKtsqgrx8WfEgQ8Nb4S9GzDeGci9N0DUcSQpTyStbzgHcaS4605DmJCJS96EaPlBBUtEcyl2GzeyUk6F_1xj-CZA5Ste7-GYPfBAyE6PW4JDc4mJyGImF9HwlGywHew813bCfW31Urm7JyDwpCCaYvWDA7ox0gZJm081p10WlFGFu6If9aL12B8TuO7Q1g_0kJn4G8jK6o4Bofy1hbUzWhM1qAAGHM2b43FGx6HdvuFZg9o4VBwzIjzTC_KWejJmNe5QOPdTjoBYJbkHN3Eqejj0HBRY1f2dJ8KF9C0b7wuTKoLscYzsNq4GIaOLUnUnXC4NE8OkMAjEERPMwXKYiYK4DIDvyQLf6i_u0d8FjVid14AsIBfuLSMyNikLf1oglaIY2WkiE66AtgbdgEvJcgIicr_lKrp2L9L2g28P9sju8lmSIc_HEQRwqgiNpqichs8-Dw1edmr66WIhh5ZTxO-YlQXSlN-8mpbdQKe6UksQoXaKzq5VtztGA8hvZEpfkxi76eadlE_lz7LD88IBYELQ6zp16E-qzg6Gq1_8K3EhRsfxDDfZXq6lqWZvXNI9ULCOmjNGo9o2fO3jEXGKjBnWD2hn6k8FzLMtv-xkuU5qjrpD7HQ8nEZtOFFqovPioi1L8LihVurFT_MrMeUKOL0fiN9hLb1KR7q26wppyUDRjwEXyNyOEgyp4H8sSfjBq2wrhWC3hopHAO430DQq8zl10NvwnWCTQ-jvJ1YETK_fW7l2wUSqdu1GKyxKav1p_DdfD3F3PLN4MaEfxVtma0Q79XXHTM1dfOrHh5DB6aW4HweHyDBjf4m-QlTlJY_DbqefdZHRZznECzMHHkU3fa49lzeIcBvSIhgFdyPkXtgtHOaOmq-JysCKKcGUvKfPxb4qdM_O1bw_L8MhKcjFxvr3jQYRooXWingEzW9AVIOgYaBkr2ht76eJp4tg7DBRtWlmuzS3E2_YXC6ymXkw6kbLJWxsp9tEtrXHcFXNYtOLDMg0I1KlM18N4bSLo5NwXeb8MRI2T3GUzlkhI35Gthyh6b_L8oCsfLcYaEGJDFQYWcnzOJAYd6xvCRKzYbepj56MCMbU0r2gmadBVcPVUNUkiEnEPbUz2kE6IXM7yH8YtqGUN2DRr4HyjK3cSb0ySBZ65iOn9dvHHAlBj0jhNz0TcL0m3XGDugJXeBm45q0x2OleGC1nisE7GJWE2w2JkaCw7EKTwx915OKZDeeAe5FN-trq20BE6bHiS6YepbogFBOGyAbPAlh1mNI_0DfKHNA_M6PoUfr6wpG2fYfA5JCFbiaf4v4QfSBRV0zrfDVwwOizdYPiXWU-RztL-UtplvsuHODmsAPFyIAXUULm8w4eLlNj3BkTUxHt-pIWqPgTxSMPkl5qzHYhvrLr_ViQouIM964m7eBXxnJaTcrhPus-0Erk8NYq8ijwLLALcDwKCz3cVjpDBwjwizdzMuMiwR-60ueUk2dfDVvcoAbK04FNcdwReLBsPuQ3U2DA3ODwh9NZvvfXtOa9Gt1MEzMWlAzhkI3SJHnTnN6zUHJedBA4FdlMh-8fmzxkcvThG2SNIr3TANamLiCAZXDBhw8Qub7fr-hevHbYSdwlafhpM6l4KoW27Xne0_ZfcUUgM2KDgcSh3R1jAWlOh8cTMtFMMwjcXUKpP0dr6FFMFKjw35h3Q3NjNJaSlAhC58TnV_hynSnnsOSYILZ-aEmDwqW8NAL8tb02x6pJZSWL420YbMyfWivOtakQmzjeVzplruGKircd6R0kMtFogcVLmAUVdjnwvIdCDxsr5doCs2cq9kzMgWhhSDOLmZ_lE75adiA_dHVqSsDGd_dKByTbHnBP3gE-Fcgr-GAEbXBVpgnnCamWlacxrUh5Cq2VohuHqzJELfCd8lDFhkV3yvFpirx9oM6V0ziDKhuLUSFYaz1qiyNDnsX5uJUKfZ9x2xzhGIT3ZvMISP0f7xe3onz936fx5y6_MRZX-TIx1JUjMxTWD7Z55hAKXPiE4D_1oBkjmcskHX9CIlaisRHEBGUNlwUqUI_yhLrGlGAj6pHQ3YXJaUGFt_-oKDFoBA5k5rmZLEA3g- -GQQOvpu3N9ZDLLB5DvzbhJhr_CxlWQ9QzQV6bqjyzDZ9fJEF4x-ZwlFrThGzy6iutR9iV_q3vyG-K__b_eFpubycFFvJy__sXv2QXN7s-lYAF40Bum6MmC-mFnpkZd- -e8XypJeO7PB1xr3yy6ex9oTdTFK7uBzsVho_lIIeo2MV6A4xpdWiCVkb-f8-Kt6OSN_4TaT-NZ7yy_Sqia3F-64Errefy_79T8UoDUfDOaRlyrVMNw-vf_geDA4A1hwUEoEVxyzv1zmh6q0ngBPgZUmAD1Cht4Jcv-2y0]--></g></svg>